<svg width="72" height="21" viewBox="0 0 72 21" fill="none" xmlns="http://www.w3.org/2000/svg">
<path fill-rule="evenodd" clip-rule="evenodd" d="M12 2.5H8V6.5H4H0V10.5V14.5V18.5H4H8V14.5H12H16V10.5V6.5V2.5H12ZM4 14.5H8V10.5H12V6.5H8V10.5H4V14.5Z" fill="white"/>
<path d="M30.4 13.608H27.152L26.568 16H23.824L27.216 4.912H30.4L33.792 16H30.984L30.4 13.608ZM27.568 11.704H29.968L28.768 6.8L27.568 11.704ZM39.9058 7.504V14.272H42.0658V16H34.9698V14.272H37.3778V9.232H35.0498V7.504H39.9058ZM38.3778 3.056C38.8151 3.056 39.1724 3.192 39.4498 3.464C39.7271 3.736 39.8658 4.07467 39.8658 4.48C39.8658 4.88533 39.7271 5.22667 39.4498 5.504C39.1724 5.776 38.8151 5.912 38.3778 5.912C37.9351 5.912 37.5724 5.776 37.2898 5.504C37.0124 5.22667 36.8738 4.88533 36.8738 4.48C36.8738 4.07467 37.0124 3.736 37.2898 3.464C37.5724 3.192 37.9351 3.056 38.3778 3.056ZM49.1395 3.864L51.6675 4.128V16H49.4275L49.2995 15.064C49.0648 15.3947 48.7528 15.68 48.3635 15.92C47.9742 16.1547 47.5022 16.272 46.9475 16.272C46.2435 16.272 45.6595 16.0827 45.1955 15.704C44.7368 15.3253 44.3928 14.7973 44.1635 14.12C43.9395 13.4373 43.8275 12.64 43.8275 11.728C43.8275 10.8533 43.9635 10.0773 44.2355 9.4C44.5075 8.72267 44.8968 8.192 45.4035 7.808C45.9102 7.41867 46.5128 7.224 47.2115 7.224C47.5902 7.224 47.9422 7.29067 48.2675 7.424C48.5928 7.55733 48.8835 7.752 49.1395 8.008V3.864ZM47.8915 9.072C47.4542 9.072 47.1022 9.28 46.8355 9.696C46.5688 10.1067 46.4355 10.7893 46.4355 11.744C46.4355 12.4427 46.4915 12.9867 46.6035 13.376C46.7155 13.76 46.8702 14.0293 47.0675 14.184C47.2648 14.3387 47.4915 14.416 47.7475 14.416C48.0302 14.416 48.2862 14.328 48.5155 14.152C48.7502 13.976 48.9582 13.736 49.1395 13.432V9.768C48.9635 9.54933 48.7768 9.37867 48.5795 9.256C48.3822 9.13333 48.1528 9.072 47.8915 9.072ZM57.5813 7.224C58.4559 7.224 59.1999 7.41067 59.8133 7.784C60.4266 8.15733 60.8959 8.68267 61.2213 9.36C61.5466 10.032 61.7093 10.8213 61.7093 11.728C61.7093 12.672 61.5439 13.4853 61.2133 14.168C60.8879 14.8453 60.4186 15.3653 59.8053 15.728C59.1919 16.0907 58.4506 16.272 57.5813 16.272C56.7173 16.272 55.9759 16.0933 55.3573 15.736C54.7439 15.3787 54.2719 14.8613 53.9413 14.184C53.6159 13.5067 53.4533 12.6933 53.4533 11.744C53.4533 10.8427 53.6159 10.0533 53.9413 9.376C54.2719 8.69867 54.7439 8.17067 55.3573 7.792C55.9759 7.41333 56.7173 7.224 57.5813 7.224ZM57.5813 9.088C57.0639 9.088 56.6799 9.30133 56.4293 9.728C56.1839 10.1493 56.0613 10.8213 56.0613 11.744C56.0613 12.6827 56.1839 13.3627 56.4293 13.784C56.6799 14.2053 57.0639 14.416 57.5813 14.416C58.0986 14.416 58.4799 14.2053 58.7253 13.784C58.9759 13.3627 59.1013 12.6773 59.1013 11.728C59.1013 10.8107 58.9759 10.1413 58.7253 9.72C58.4799 9.29867 58.0986 9.088 57.5813 9.088ZM66.903 14.464C67.3243 14.464 67.663 14.3973 67.919 14.264C68.1803 14.1307 68.311 13.9307 68.311 13.664C68.311 13.4827 68.2603 13.3307 68.159 13.208C68.0577 13.0853 67.863 12.968 67.575 12.856C67.287 12.744 66.8603 12.6107 66.295 12.456C65.7777 12.3173 65.319 12.1413 64.919 11.928C64.5243 11.7147 64.215 11.44 63.991 11.104C63.7723 10.768 63.663 10.3493 63.663 9.848C63.663 9.34133 63.8043 8.89067 64.087 8.496C64.3697 8.10133 64.7857 7.792 65.335 7.568C65.8843 7.33867 66.5563 7.224 67.351 7.224C68.1083 7.224 68.767 7.32267 69.327 7.52C69.8923 7.712 70.3803 7.95733 70.791 8.256L69.783 9.744C69.431 9.52533 69.0523 9.352 68.647 9.224C68.2417 9.09067 67.8337 9.024 67.423 9.024C67.0123 9.024 66.7057 9.08 66.503 9.192C66.3057 9.29867 66.207 9.46133 66.207 9.68C66.207 9.824 66.2577 9.94933 66.359 10.056C66.4657 10.1573 66.663 10.264 66.951 10.376C67.239 10.4827 67.6603 10.616 68.215 10.776C68.7643 10.9307 69.2417 11.1093 69.647 11.312C70.0577 11.5147 70.375 11.7867 70.599 12.128C70.823 12.464 70.935 12.9093 70.935 13.464C70.935 14.0827 70.751 14.6027 70.383 15.024C70.015 15.44 69.527 15.752 68.919 15.96C68.311 16.168 67.6443 16.272 66.919 16.272C66.0977 16.272 65.3723 16.1547 64.743 15.92C64.1137 15.6853 63.5777 15.376 63.135 14.992L64.407 13.568C64.7377 13.824 65.111 14.0373 65.527 14.208C65.9483 14.3787 66.407 14.464 66.903 14.464Z" fill="white"/>
</svg>
