<svg width="32.000000" height="32.000000" viewBox="0 0 32 32" fill="none" xmlns="http://www.w3.org/2000/svg" xmlns:xlink="http://www.w3.org/1999/xlink">
	<desc>
			Created with Pixso.
	</desc>
	<defs>
		<clipPath id="clip2_1629">
			<rect id="phone" width="32.000000" height="32.000000" fill="white" fill-opacity="0"/>
		</clipPath>
	</defs>
	<g clip-path="url(#clip2_1629)">
		<path id="path" d="M11.4402 6C11.8845 6 12.2939 6.241 12.5098 6.62953L14.0059 9.32492C14.2019 9.67784 14.2112 10.1047 14.0305 10.4658L12.5891 13.3488C12.5891 13.3488 13.0068 15.4966 14.7551 17.2449C16.5034 18.9932 18.644 19.4037 18.644 19.4037L21.5266 17.9624C21.8879 17.7818 22.3149 17.7911 22.668 17.9874L25.3711 19.4902C25.7593 19.7061 26 20.1152 26 20.5594L26 23.6625C26 25.2428 24.5322 26.3842 23.0347 25.8789C19.9595 24.8413 15.1858 22.8656 12.1602 19.8398C9.13452 16.8142 7.15869 12.0405 6.12109 8.96521C5.61572 7.46786 6.75708 6 8.3374 6L11.4402 6Z" fill="#000000" fill-opacity="0" fill-rule="nonzero"/>
		<path id="path" d="M12.5098 6.62953L14.0059 9.32492C14.2019 9.67784 14.2112 10.1047 14.0305 10.4658L12.5891 13.3488C12.5891 13.3488 13.0068 15.4966 14.7551 17.2449C16.5034 18.9932 18.644 19.4037 18.644 19.4037L21.5266 17.9624C21.8879 17.7818 22.3149 17.7911 22.668 17.9874L25.3711 19.4902C25.7593 19.7061 26 20.1152 26 20.5594L26 23.6625C26 25.2428 24.5322 26.3842 23.0347 25.8789C19.9595 24.8413 15.1858 22.8656 12.1602 19.8398C9.13452 16.8142 7.15869 12.0405 6.12109 8.96521C5.61572 7.46786 6.75708 6 8.3374 6L11.4402 6C11.8845 6 12.2939 6.241 12.5098 6.62953Z" stroke="#ABB2BF" stroke-opacity="1.000000" stroke-width="1.500000" stroke-linejoin="round"/>
	</g>
</svg>
