<svg width="32.000000" height="32.000000" viewBox="0 0 32 32" fill="none" xmlns="http://www.w3.org/2000/svg" xmlns:xlink="http://www.w3.org/1999/xlink">
	<desc>
			Created with Pixso.
	</desc>
	<defs>
		<clipPath id="clip2_1627">
			<rect id="telegram" width="32.000000" height="32.000000" fill="white" fill-opacity="0"/>
		</clipPath>
	</defs>
	<g clip-path="url(#clip2_1627)">
		<path id="path" d="M25.0391 7.1692C25.0391 7.1692 27.1667 6.33957 26.9895 8.35442C26.9304 9.18407 26.3984 12.0878 25.9849 15.2286L24.5664 24.5325C24.5664 24.5325 24.4482 25.8955 23.3843 26.1326C22.3206 26.3696 20.7249 25.3029 20.4292 25.0659C20.1929 24.8881 15.9966 22.2214 14.519 20.9176C14.1052 20.5621 13.6326 19.8509 14.5781 19.0213L20.7839 13.0953C21.4932 12.3841 22.2021 10.7249 19.2471 12.7397L10.9729 18.3695C10.9729 18.3695 10.0273 18.962 8.25415 18.4287L4.4126 17.2435C4.4126 17.2435 2.99414 16.3546 5.41724 15.4657C11.3276 12.6804 18.5972 9.83591 25.0391 7.1692Z" fill="#ABB2BF" fill-opacity="1.000000" fill-rule="nonzero"/>
	</g>
</svg>
